<svg height="512" viewBox="0 0 512 512" width="512" xmlns="http://www.w3.org/2000/svg"><path d="m435.378 487.29a31.067 31.067 0 0 1 -35.15-18.16l-40.4-117.13v24.51c12.61 22.06 9.45 50.72-8 71.49v48h-144v-48c-17.14-20.4-19.97-48.4-8-70.3v-25.7l-64 62.42-24 23.41a28.276 28.276 0 0 1 -45.76-32.99l69.76-79.35 20.88-23.75a64.029 64.029 0 0 1 48.07-21.74h43.05v-64h64v64h53.82a47.956 47.956 0 0 1 45.36 32.3l46.24 133.57c6.16 17.82-3.44 37.45-21.87 41.42z" fill="#fec9a3"/><path d="m435.378 487.29a31.067 31.067 0 0 1 -35.15-18.16l-40.4-117.13v24.51c12.61 22.06 9.45 50.72-8 71.49v48h-133.09c70.02-40.16 127.72-96.55 156.44-215.05a48.031 48.031 0 0 1 35.83 31.35l46.24 133.57c6.16 17.82-3.44 37.45-21.87 41.42z" fill="#fec093"/><path d="m284.652 256a43.894 43.894 0 0 0 27.176-9.807v-30.193h-64v30.19a43.892 43.892 0 0 0 27.172 9.81z" fill="#feb784"/><path d="m135.828 325.49v88.93l-24 23.41a28.276 28.276 0 0 1 -45.76-32.99z" fill="#fec093"/><path d="m207.828 496v-48c-19.794-23.557-20.543-57.276-1.4-80h147.485c19.145 22.724 17.708 56.443-2.085 80v48" fill="#3d4d63"/><path d="m351.828 112v56a72.006 72.006 0 0 1 -72 72q-3.345 0-6.6-.3a71.962 71.962 0 0 1 -65.4-71.7v-56a64 64 0 0 1 64-64h16a63.934 63.934 0 0 1 64 64z" fill="#fec9a3"/><path d="m308.318 51.35a88.021 88.021 0 0 0 -65.14 84.99v93.65a72 72 0 0 1 -35.35-61.99v-56a64 64 0 0 1 64-64h16a63.963 63.963 0 0 1 20.49 3.35z" fill="#fec093"/><path d="m279.828 200a24.026 24.026 0 0 1 -24-24h16a8 8 0 0 0 16 0h16a24.027 24.027 0 0 1 -24 24z" fill="#f7a468"/><path d="m351.828 112v56a72.006 72.006 0 0 1 -72 72q-3.345 0-6.6-.3a87.95 87.95 0 0 0 40.93-74.37v-48a87.9 87.9 0 0 0 -33.8-69.33h7.47a64 64 0 0 1 64 64z" fill="#fec093"/><circle cx="243.828" cy="140" fill="#7a432a" r="12"/><circle cx="315.828" cy="140" fill="#7a432a" r="12"/><path d="m367.83 112v132.92a63.611 63.611 0 0 1 -40 59.08v-181.4a69.994 69.994 0 0 0 -11.19-38.02c-.66-1.03-1.35-2.04-2.06-3.03a70.066 70.066 0 0 0 -26.75-22.33 71.043 71.043 0 0 0 -8-3.22 71.043 71.043 0 0 0 -8 3.22 70.2 70.2 0 0 0 -40 63.38v181.4c-.8-.32-1.59-.65-2.37-1.01a63.609 63.609 0 0 1 -37.63-58.07v-132.92a88.03 88.03 0 0 1 80-87.64q3.945-.36 8-.36t8 .36a87.069 87.069 0 0 1 23 5.26 88.037 88.037 0 0 1 57 82.38z" fill="#ffa912"/><path d="m229.46 302.99c.8-1.09 1.59-2.18 2.37-3.28v4.29c-.8-.32-1.59-.65-2.37-1.01z" fill="#f7a116"/><path d="m367.83 112v132.92a63.611 63.611 0 0 1 -40 59.08v-181.4a69.994 69.994 0 0 0 -11.19-38.02 204.783 204.783 0 0 0 -5.81-54.96 88.037 88.037 0 0 1 57 82.38z" fill="#f7a116"/><path d="m69.912 240-13.988 174.869c-1.43 17.871 13.265 33.131 31.905 33.131 17.672 0 32-13.777 32-30.771v-177.229z" fill="#fec9a3"/><path d="m158.64 172.681-134.64 50.143 9.559 31.481 139.421-34.402z" fill="#3d4d63"/><path d="m156.251 164.81c-16.818 5.19-26.172 23.49-20.892 40.876s23.193 27.275 40.011 22.087 26.171-23.488 20.891-40.875-23.193-27.276-40.01-22.088z" fill="#3d4d63"/><path d="m125.8 174.2-68.516 21.141 14.339 47.222a16.111 16.111 0 0 0 20 11.043l38.065-11.742a16.286 16.286 0 0 0 10.446-20.438z" fill="#fec9a3"/><path d="m140.139 221.426-4.971-16.369a18.025 18.025 0 0 1 -12.048 12.815l-43.254 13.343a17.519 17.519 0 0 1 -11.878-.622l3.635 11.97a16.111 16.111 0 0 0 20 11.043l38.065-11.742a16.286 16.286 0 0 0 10.451-20.438z" fill="#fec093"/><path d="m431.828 488a32 32 0 0 1 -32-32v-1.837a32 32 0 0 1 2.288-11.885l13.712-34.278h48v48a32 32 0 0 1 -32 32z" fill="#fec9a3"/><path d="m439.828 264h32v48h-32z" fill="#374559"/><path d="m431.106 223.406-15.278 37.427 56.721 19.76 15.279-37.427z" fill="#3d4d63"/><path d="m439.828 312h32v184h-32z" fill="#d6d6d4"/><path d="m479.828 408h-56a16 16 0 0 1 -16-16v-32a16 16 0 0 1 16-16h56z" fill="#fec9a3"/><path d="m463.828 344h16v64h-16z" fill="#fec093"/><path d="m151.718 73.312a8 8 0 0 0 -7.89-9.312h-48a8 8 0 0 0 -7.891 6.688l-5.594 33.566a15.977 15.977 0 1 0 13.357 17.055h.023l6.882-41.309h31.777l-4.04 24.254a15.977 15.977 0 1 0 13.358 17.055h.023z" fill="#4db7e5"/><path d="m347.766 368c-34.25 66.29-84.748 107.447-116.683 128h120.745v-48c19.793-23.557 21.231-57.276 2.086-80z" fill="#374559"/><path d="m439.828 424v-16h-24l-6.4 16z" fill="#fec093"/><path d="m439.828 408h32v16h-32z" fill="#c7c7c5"/><path d="m287.828 24.36v34.86a71.043 71.043 0 0 0 -8-3.22 71.043 71.043 0 0 0 -8 3.22v-34.86q3.945-.36 8-.36t8 .36z" fill="#f7a116"/></svg>